# xmcd
#
# Track frame offsets: 
#        150
#        30841
#        46554
#        74519
#        96764
#        114854
#        128982
#        151182
#        172176
#        190211
#        212025
#        236021
#        253870
#        276234
#        292012
#
# Disc length: 4216 seconds
#
# Revision: 2
# Processed by: cddbd v1.5.2PL0 Copyright (c) Steve Scherf et al.
# Submitted via: ExactAudioCopyFreeDBPlugin 1.0
#
DISCID=d510760f
DTITLE=Various Artist - This Is The Blues Vol Two
DYEAR=2010
DGENRE=Blues
TTITLE0=R. Gallagher J. Cook R. Newman Spoon - Leaving Town Blues
TTITLE1=J. Bruce D. Heckstall-Smith C. Clempson R. Leahy N. Wilkinson 
TTITLE1=/ Send For Me
TTITLE2=Dave Peverett and Rod Price Southside Johnny T. Mandel H. Brooks
TTITLE2=Mo Potts - Love That Burns
TTITLE3=J. L. Hooker B. T. Jones R. California B. Gary P. Chen - Red H
TTITLE3=ouse
TTITLE4=Z. Money B. Tench J. McKenzieJ. Allen - Watcha Gonna Do
TTITLE5=Savoy Brown - Stop Messin' Round
TTITLE6=D. Power D. Heckstall-Smitrh A. Keen - Go Down Sunshine
TTITLE7=P. Jones B. Tench M. Middleton B. Jenkins P. Brown - Albatross
TTITLE8=Peter Green Nigel Watson - Travelling Riverside Blues
TTITLE9=Southside Johnny D. Peverett R. Price T. Mandel H. Brooks Mo P
TTITLE9=otts - Baby When The Sun Goes Down
TTITLE10=H. Mandel J. Paris W. Bascomb D. Duewhite - Ramblin' Pony
TTITLE11=Nine Below Zero - Nine Below Zero
TTITLE12=Naked Blue - Closing My Eyes
TTITLE13=P. Brown P. Ryan D. Heckstall-Smith L. Davidson H. Thomas B. 
TTITLE13=Jenkins - Rocks In My Bed
TTITLE14=T. S. McPhee D. Heckstall-Smith C. Clempson D. Hadley J. Alle
TTITLE14=n - I'm Leaving
EXTD=
EXTT0=
EXTT1=
EXTT2=
EXTT3=
EXTT4=
EXTT5=
EXTT6=
EXTT7=
EXTT8=
EXTT9=
EXTT10=
EXTT11=
EXTT12=
EXTT13=
EXTT14=
PLAYORDER=
